<svg width="895" height="895" viewBox="0 0 895 895" fill="none" xmlns="http://www.w3.org/2000/svg">
<rect width="895" height="895" fill="white"/>
<path d="M232.927 380.641V509.089H204.135V456.922H147.183V509.089H118.39V380.641H147.183V431.547H204.135V380.641H232.927ZM295.284 511.296C286.529 511.296 278.726 509.194 271.87 504.992C265.014 500.894 259.689 495.167 255.892 487.813C252.095 480.458 250.197 472.157 250.197 462.911C250.197 453.665 252.095 445.364 255.892 438.009C259.689 430.654 265.014 424.928 271.87 420.83C278.726 416.627 286.529 414.526 295.284 414.526C307.202 414.526 316.061 418.414 321.861 426.189V416.733H350.021V509.089H321.861V499.633C316.061 507.409 307.202 511.296 295.284 511.296ZM299.713 487.34C306.569 487.34 312.053 485.08 316.166 480.563C320.279 475.94 322.336 470.056 322.336 462.911C322.336 455.766 320.279 449.935 316.166 445.417C312.053 440.794 306.569 438.482 299.713 438.482C293.069 438.482 287.743 440.794 283.735 445.417C279.727 449.935 277.723 455.766 277.723 462.911C277.723 470.056 279.727 475.94 283.735 480.563C287.743 485.08 293.069 487.34 299.713 487.34ZM371.275 416.733H399.435V426.189C405.235 418.414 413.884 414.526 425.379 414.526C432.551 414.526 438.879 416.207 444.363 419.569C449.847 422.827 454.067 427.555 457.019 433.754C460.078 439.953 461.607 447.255 461.607 455.661V509.089H433.447V460.389C433.447 453.35 432.024 447.991 429.176 444.313C426.434 440.531 422.427 438.64 417.153 438.64C411.669 438.64 407.345 440.689 404.181 444.786C401.017 448.884 399.435 454.505 399.435 461.65V509.089H371.275V416.733ZM515.459 511.296C508.287 511.296 501.959 509.615 496.475 506.252C490.991 502.996 486.72 498.267 483.661 492.068C480.708 485.868 479.231 478.566 479.231 470.161V416.733H507.391V465.433C507.391 472.472 508.762 477.883 511.504 481.666C514.352 485.344 518.412 487.182 523.686 487.182C529.169 487.182 533.494 485.133 536.658 481.036C539.822 476.938 541.404 471.317 541.404 464.172V416.733H569.563V509.089H541.404V499.633C535.604 507.409 526.955 511.296 515.459 511.296ZM590.808 416.733H618.967V425.558C621.815 421.776 625.032 418.992 628.618 417.205C632.309 415.419 636.686 414.526 641.748 414.526C647.548 414.526 652.822 415.682 657.568 417.993C662.314 420.2 666.216 423.457 669.275 427.765C672.755 423.352 677.027 420.042 682.089 417.836C687.151 415.629 693.163 414.526 700.124 414.526C707.19 414.526 713.413 416.207 718.791 419.569C724.17 422.827 728.336 427.555 731.289 433.754C734.242 439.953 735.719 447.255 735.719 455.661V509.089H707.559V460.389C707.559 453.35 706.24 447.991 703.604 444.313C700.968 440.531 697.065 438.64 691.897 438.64C687.363 438.64 683.829 440.373 681.298 443.841C678.872 447.308 677.554 452.351 677.343 458.971V509.089H649.184V460.389C649.184 453.35 647.865 447.991 645.229 444.313C642.592 440.531 638.689 438.64 633.522 438.64C628.987 438.64 625.454 440.373 622.922 443.841C620.496 447.308 619.179 452.351 618.967 458.971V509.089H590.808V416.733Z" fill="black"/>
<path d="M766.371 400.095C778.316 400.095 788 390.448 788 378.548C788 366.647 778.316 357 766.371 357C754.426 357 744.742 366.647 744.742 378.548C744.742 390.448 754.426 400.095 766.371 400.095Z" fill="black"/>
</svg>
